<svg xmlns="http://www.w3.org/2000/svg" width="580.785" height="277.785" viewBox="0 0 580.785 277.785">
  <g id="Group_4" data-name="Group 4" transform="translate(-751.215 -173.215)">
    <g id="Rectangle_7" data-name="Rectangle 7" transform="translate(866 291)" fill="#06b5b9" stroke="#707070" stroke-width="1">
      <path d="M0,0H466a0,0,0,0,1,0,0V160a0,0,0,0,1,0,0H9a9,9,0,0,1-9-9V0A0,0,0,0,1,0,0Z" stroke="none"/>
      <path d="M1,.5H465a.5.5,0,0,1,.5.5V159a.5.5,0,0,1-.5.5H9A8.5,8.5,0,0,1,.5,151V1A.5.5,0,0,1,1,.5Z" fill="none"/>
    </g>
    <path id="Polygon_1" data-name="Polygon 1" d="M106.878,0,213.755,160H0Z" transform="translate(751.215 324.363) rotate(-45)" fill="#fff"/>
  </g>
</svg>
